<svg xmlns="http://www.w3.org/2000/svg" width="54.145" height="63.65" viewBox="0 0 54.145 63.65"><defs><style>.a,.b,.c,.d,.e,.f,.g{fill-rule:evenodd;}.b{fill:#f9f3e7;}.c{fill:#c6b08b;}.d{fill:#7b4f06;}.e{fill:#6aaaea;}.f{fill:#808e6d;}.g{fill:#c7cebe;}</style></defs><g transform="translate(-45.44 -8.474)"><path class="a" d="M134.126,96.668h8.229V70.126a14.6,14.6,0,0,0-14.6-14.6h-3.714a14.6,14.6,0,0,0-14.6,14.6V96.668h8.229" transform="translate(-55.771 -41.002)"/><path class="b" d="M76.461,312.472a2.708,2.708,0,0,0,2.709,2.708h7.52a8.121,8.121,0,0,1,8.122,8.122v8.335H45.44V323.3a8.121,8.121,0,0,1,8.121-8.122h7.521a2.708,2.708,0,0,0,2.708-2.708v-6.2a7.028,7.028,0,0,0,2.773.577h7.125a7.027,7.027,0,0,0,2.772-.577Z" transform="translate(0 -259.513)"/><path class="c" d="M200.831,310.533a8.18,8.18,0,0,1-2.772.485h-7.125a8.177,8.177,0,0,1-2.773-.485v-4.257a7.028,7.028,0,0,0,2.773.577h7.125a7.027,7.027,0,0,0,2.772-.577Z" transform="translate(-124.37 -259.513)"/><path class="b" d="M166.126,141.407v7.623a8.782,8.782,0,0,1-8.78,8.78H150.22a8.779,8.779,0,0,1-8.78-8.78v-7.623c6.348-.563,12.582-1.636,17.5-8.643Z" transform="translate(-83.657 -108.31)"/><g transform="translate(62.738 34.006)"><path class="a" d="M208.976,282.677a5.253,5.253,0,0,1,5.634,0,.643.643,0,0,0,.653-1.108,6.457,6.457,0,0,0-6.926,0,.643.643,0,0,0,.639,1.116Z" transform="translate(-204.409 -271.105)"/><path class="a" d="M286.132,207.055c.58,0,1.052.9,1.052,2.006s-.472,2-1.052,2-1.052-.9-1.052-2S285.551,207.055,286.132,207.055Z" transform="translate(-271.567 -207.055)"/><path class="a" d="M181.032,207.055c.58,0,1.052.9,1.052,2.006s-.472,2-1.052,2-1.052-.9-1.052-2S180.452,207.055,181.032,207.055Z" transform="translate(-179.98 -207.055)"/></g><path class="d" d="M78.354,375.525H86.69a8.121,8.121,0,0,1,8.122,8.122v8.335H45.44v-8.335a8.121,8.121,0,0,1,8.121-8.122H61.9s.855.856,2.016,2.016a8.784,8.784,0,0,0,12.425,0l2.016-2.016Z" transform="translate(0 -319.858)"/><path class="e" d="M142.293,245.741a.62.62,0,0,1-.222-.041l-5.214-1.927a.643.643,0,0,1,.446-1.206l5.025,1.858h14.191l5.025-1.858a.643.643,0,1,1,.446,1.206l-5.213,1.927a.613.613,0,0,1-.222.041V252.7a8.767,8.767,0,0,1-3.567.757h-7.125a8.768,8.768,0,0,1-3.568-.757v-6.962Z" transform="translate(-79.298 -203.96)"/><path class="f" d="M352.152,8.952a50.839,50.839,0,0,1,14.036.017,14.763,14.763,0,0,1,.359,3.245c0,5.554-3.059,10.309-7.379,12.24-4.32-1.931-7.377-6.686-7.377-12.24a14.817,14.817,0,0,1,.361-3.262Z" transform="translate(-266.963)"/><path class="g" d="M365.4,23.274a38.991,38.991,0,0,1,10.776.013,11.323,11.323,0,0,1,.275,2.492,10.17,10.17,0,0,1-5.665,9.4,10.171,10.171,0,0,1-5.663-9.4A11.361,11.361,0,0,1,365.4,23.274Z" transform="translate(-278.579 -12.576)"/><path class="b" d="M381.153,36.562l3.823-4.1a.551.551,0,0,1,.829.01.687.687,0,0,1-.008.909L381.6,37.879a.55.55,0,0,1-.776.042L378.283,35.7a.687.687,0,0,1-.093-.9.552.552,0,0,1,.824-.1Z" transform="translate(-289.479 -19.592)"/></g></svg>