<svg xmlns="http://www.w3.org/2000/svg" width="52.011" height="45.076" viewBox="0 0 52.011 45.076"><defs><style>.a{fill:#f9f3e7;}</style></defs><g transform="translate(0 -2)"><path class="a" d="M24.128,13.084,19.462,8.418l1.96-2.95h7.954l1.96,2.95L26.653,13.1,29.1,15.552l6.689-6.689L31.235,2H19.563L15,8.863l6.672,6.672Z" transform="translate(11.009)"/><path class="a" d="M17.337,42.674a16.8,16.8,0,0,0,5.678-.961A17.343,17.343,0,0,0,34.674,25.337a17.013,17.013,0,0,0-1.2-6.29l-3.224,1.277a13.56,13.56,0,0,1,.953,5.013,13.877,13.877,0,0,1-9.34,13.1,13.377,13.377,0,0,1-4.53.765,13.87,13.87,0,1,1,0-27.739,13.741,13.741,0,0,1,6.819,1.8l1.724-3.009a17.334,17.334,0,1,0-8.542,32.416Z" transform="translate(0 4.402)"/><path class="a" d="M27.6,10a15.592,15.592,0,0,0-12.445,6.186A15.741,15.741,0,0,0,12,25.6a15.341,15.341,0,0,0,1.68,7.028l3.09-1.573a11.919,11.919,0,0,1-1.3-5.455A12.136,12.136,0,1,1,27.6,37.739a11.613,11.613,0,0,1-3.924-.661l-1.168,3.264a15.045,15.045,0,0,0,5.092.864A15.6,15.6,0,0,0,27.6,10Z" transform="translate(8.804 5.87)"/></g></svg>