<svg xmlns="http://www.w3.org/2000/svg" xmlns:xlink="http://www.w3.org/1999/xlink" width="20" height="24.374" viewBox="0 0 20 24.374"><defs><style>.a{fill:url(#a);}.b{fill:url(#b);}.c{fill:url(#c);}.d{fill:url(#d);}.e{fill:url(#e);}.f{fill:url(#f);}.g{fill:url(#g);}</style><linearGradient id="a" x1="0.489" y1="0.284" x2="0.551" y2="1.501" gradientUnits="objectBoundingBox"><stop offset="0" stop-color="#ffda45"/><stop offset="1" stop-color="#ffa425"/></linearGradient><linearGradient id="b" x1="0.62" y1="0.732" x2="0.359" y2="-0.25" gradientUnits="objectBoundingBox"><stop offset="0" stop-color="#ffda45" stop-opacity="0"/><stop offset="1" stop-color="#b53759"/></linearGradient><linearGradient id="c" x1="0.198" y1="0.169" x2="1.196" y2="1.022" gradientUnits="objectBoundingBox"><stop offset="0" stop-color="#ff7044"/><stop offset="1" stop-color="#f92814"/></linearGradient><linearGradient id="d" x1="0.387" y1="0.329" x2="0.018" y2="0.016" gradientUnits="objectBoundingBox"><stop offset="0" stop-color="#ff7044" stop-opacity="0"/><stop offset="1" stop-color="#ffa425"/></linearGradient><linearGradient id="e" x1="0.199" y1="0.546" x2="1.196" y2="1.544" xlink:href="#c"/><linearGradient id="f" x1="0.787" y1="0.77" x2="0.411" y2="0.402" gradientUnits="objectBoundingBox"><stop offset="0" stop-color="#f92814" stop-opacity="0"/><stop offset="1" stop-color="#c1272d"/></linearGradient><linearGradient id="g" x1="0.378" y1="0.313" x2="0.673" y2="0.764" gradientUnits="objectBoundingBox"><stop offset="0" stop-color="#f9f7fc"/><stop offset="1" stop-color="#f0ddfc"/></linearGradient></defs><g transform="translate(-45.757)"><ellipse class="a" cx="9.124" cy="1.962" rx="9.124" ry="1.962" transform="translate(46.633 20.45)"/><path class="b" d="M215.89,429.858c0-1.083-4.085-1.962-9.124-1.962-.838,0-1.65.024-2.421.07l1.708,2.513a.867.867,0,0,0,.164.181l1.156,1.156C212.129,431.748,215.89,430.9,215.89,429.858Z" transform="translate(-151.009 -407.446)"/><path class="c" d="M65.757,10a10,10,0,1,0-13.978,9.177A3.443,3.443,0,0,1,53.255,20.4l1.789,2.632a.862.862,0,0,0,1.426,0L58.259,20.4a3.429,3.429,0,0,1,1.47-1.221A10,10,0,0,0,65.757,10Z"/><path class="d" d="M65.687,32.84a.361.361,0,0,1-.3-.159L63.6,30.049a3.934,3.934,0,0,0-1.689-1.4,9.5,9.5,0,0,1,3.78-18.221h0a9.5,9.5,0,0,1,3.774,18.224,3.921,3.921,0,0,0-1.684,1.4l-1.789,2.632A.361.361,0,0,1,65.687,32.84Z" transform="translate(-9.929 -9.929)"/><circle class="e" cx="6.286" cy="6.286" r="6.286" transform="translate(49.471 3.714)"/><path class="f" d="M163.227,110.272l-5.972-5.972a5.092,5.092,0,1,0-7.2,7.2l6.294,6.294a3.412,3.412,0,0,1,1.161-.83A10.023,10.023,0,0,0,163.227,110.272Z" transform="translate(-97.783 -97.782)"/><circle class="g" cx="5.092" cy="5.092" r="5.092" transform="translate(50.665 4.908)"/></g></svg>